<svg xmlns="http://www.w3.org/2000/svg" xml:space="preserve" viewBox="0 0 65.969 60.674"><path d="M115.178 115.224c-.737.005-1.307.129-1.852.401-.81.406-16.423 15.823-26.29 25.962l-4.747 4.88v.785c0 .914.468 1.627 1.308 1.993.696.303.873.304 1.564.006.329-.141 6.774-6.41 15.34-14.92l14.772-14.676 14.773 14.676c9.316 9.255 14.998 14.773 15.382 14.938 1.315.565 2.83-.534 2.83-2.053 0-.73-.074-.823-3.513-4.393a441.318 441.318 0 0 0-5.468-5.583l-1.955-1.938v-7.414c0-6.85-.024-7.46-.323-8.029-.551-1.046-1.165-1.23-4.09-1.231-4.178 0-4.406.25-4.406 4.846v2.995l-5.248-5.235c-5.818-5.804-6.115-6.025-8.077-6.01zm.095 9.137-13.229 13.228-13.229 13.229.002 9.613c.002 10.15.027 10.505.836 12.088.703 1.373 2.652 2.869 4.23 3.245.377.09 9.802.146 21.743.13l21.079-.028 1-.47c1.195-.56 2.474-1.693 3.085-2.736.914-1.56.938-1.871.94-12.229l.002-9.613-13.23-13.229zm2.883 19.29c.355-.007.698.08 1.147.29 1.376.643 2.815 2.265 3.35 3.777.286.806.337 1.429.197 2.403-.245 1.695-1.291 3.095-2.574 3.444-.327.089-.897.096-1.249.018-.563-.127-1.253-.582-1.685-1.113-.903-1.108-1.241-2.404-1.196-4.569.058-2.724.67-4.124 1.856-4.24.052-.005.103-.008.154-.01zm-5.991.103c.44-.013.852.131 1.133.412.735.73 1.107 2.351 1.088 4.736-.008 1.113-.048 1.446-.247 2.083-.393 1.263-1.258 2.293-2.237 2.664-.368.139-1.14.176-1.512.072-.769-.216-1.413-.713-1.903-1.47-.818-1.264-1.059-2.989-.604-4.326.626-1.842 2.373-3.711 3.835-4.104.15-.04.3-.063.447-.067zm13.118 6.39c.203 0 .4.041.582.128 1.084.518 1.955 2.605 1.91 4.574-.023.964-.248 1.704-.76 2.495-.887 1.372-2.309 2.104-3.47 1.787a2.28 2.28 0 0 1-1.085-.63c-.862-.845-1.159-2.249-.78-3.7.122-.464.212-.697.54-1.401.624-1.336 1.392-2.425 2.038-2.89.332-.238.687-.36 1.025-.363zm-19.935.367c.393-.006.45.004.74.14.787.369 1.844 1.735 2.626 3.392.396.84.567 1.503.579 2.254.021 1.332-.552 2.465-1.486 2.938-.488.246-1.113.328-1.613.211-.596-.138-1.108-.423-1.64-.91a4.621 4.621 0 0 1-1.01-1.306c-.41-.769-.524-1.237-.54-2.22-.023-1.362.347-2.734.99-3.67.222-.321.414-.508.716-.692.192-.118.251-.13.638-.137zm10.403 3.32c.323.003.472.028.77.103.603.15 1.35.51 1.827.882.53.41.879.876 1.361 1.809.594 1.149.954 1.542 2.043 2.23.973.615 1.537 1.22 2.007 2.156.59 1.175.585 2.545-.013 3.598-.35.616-1.15 1.31-1.886 1.635-.822.363-1.447.493-2.454.51-1.138.02-1.8-.106-2.608-.494-.562-.27-.928-.384-1.212-.38-.28.007-.762.172-1.278.442a5.583 5.583 0 0 1-.676.298c-.649.212-1.784.336-2.545.278h-.001c-1.738-.134-3.273-1.069-3.89-2.369-.24-.507-.298-.788-.31-1.496-.008-.576.002-.694.105-1.053a5.347 5.347 0 0 1 1.156-2.068c.168-.185.597-.574.957-.863.359-.29.802-.69.985-.888.318-.345.44-.532 1.26-1.94a5.317 5.317 0 0 1 1.222-1.43c.41-.32 1.099-.668 1.626-.818.393-.112.527-.128 1.16-.14.159-.002.286-.003.394-.002z" style="fill:#f9f9f9;stroke-width:.176389" transform="translate(-82.289 -115.223)"/></svg>