<svg xmlns="http://www.w3.org/2000/svg" xml:space="preserve" viewBox="0 0 30.513 57.783"><path d="M88.011 119.609v42.634l30.513.68V119.61z" style="fill:#bbd6e9;fill-opacity:1;stroke:none;stroke-width:.0436441px;stroke-linecap:butt;stroke-linejoin:miter;stroke-opacity:1" transform="translate(-88.01 -119.609)"/><path d="M88.011 177.391v-34.525h22.004v34.525z" style="fill:#4c66c5;fill-opacity:1;stroke:none;stroke-width:.0568682px;stroke-linecap:butt;stroke-linejoin:miter;stroke-opacity:1" transform="translate(-88.01 -119.609)"/><path d="M88.01 123.139c12.007-8.516 19.628 5.713 30.494-1.11v55.362h-14.26s-3.304-3.918 1.808-9.898c5.111-5.98 5.547-29.616-9.516-22.184-3.415 1.525-8.518-.853-8.525-.859z" style="fill:#3b83b7;fill-opacity:1;stroke:none;stroke-width:.519668;stroke-linecap:butt;stroke-linejoin:miter;stroke-dasharray:none;stroke-opacity:1" transform="translate(-88.01 -119.609)"/><path d="M99.97 174.126c-.327.14-.692.115-.926-.061a.603.603 0 0 1-.197-.24.574.574 0 0 1-.08-.201 1.088 1.088 0 0 1 .014-.482c.013-.05.054-.16.091-.246a2.357 2.357 0 0 0 .095-.253c.025-.092.029-.138.045-.47.006-.126.038-.267.086-.372.043-.097.135-.224.216-.301a.721.721 0 0 1 .196-.134.703.703 0 0 1 .22-.092 1.114 1.114 0 0 1 .413-.013c.134.025.24.075.416.199a.945.945 0 0 0 .578.21c.234.02.393.076.566.2a.783.783 0 0 1 .336.651.91.91 0 0 1-.187.473 1.143 1.143 0 0 1-.395.323c-.203.11-.334.15-.517.156a.594.594 0 0 0-.254.046.702.702 0 0 0-.19.2 1.126 1.126 0 0 1-.093.117c-.098.1-.29.229-.434.29zm-1.585-.884a.724.724 0 0 1-.382-.01.94.94 0 0 1-.306-.141.833.833 0 0 1-.306-.35 1.329 1.329 0 0 1-.167-.756.447.447 0 0 1 .064-.192c.024-.04.033-.047.103-.085.07-.038.081-.041.146-.044.177-.008.496.14.794.365.15.114.244.218.317.352.129.239.132.497.008.67a.51.51 0 0 1-.272.19zm3.102-1.692a.464.464 0 0 1-.255-.011c-.236-.072-.421-.297-.49-.594a1.408 1.408 0 0 1-.034-.305c-.013-.3.023-.568.096-.713.06-.119.158-.19.268-.194.244-.008.598.286.775.646a.91.91 0 0 1 .098.522c-.031.331-.219.597-.458.65zm-2.884.263a.678.678 0 0 1-.482-.086 1.067 1.067 0 0 1-.516-.725c-.06-.391.078-.893.305-1.101a.332.332 0 0 1 .318-.087c.202.063.421.32.643.753.103.201.127.265.151.4.048.264-.011.531-.153.69a.645.645 0 0 1-.266.156zm1.546-.838a.69.69 0 0 1-.409-.043c-.267-.114-.45-.317-.646-.711-.246-.498-.267-.808-.064-.94a.481.481 0 0 1 .261-.073c.31-.013.722.144.96.367a.916.916 0 0 1 .262.415c.116.33.059.68-.14.864a.637.637 0 0 1-.224.12z" style="fill:#000;fill-opacity:.1;stroke-width:.00910659" transform="translate(-88.01 -119.609)"/><path d="M108.237 143.669c-.732.091-1.447-.166-1.812-.652-.143-.19-.19-.302-.255-.594-.053-.238-.058-.288-.046-.446.024-.323.133-.664.304-.954.053-.091.199-.289.323-.439.124-.15.274-.354.333-.451.103-.17.138-.258.358-.91.085-.25.23-.513.385-.696.143-.168.4-.37.605-.477.153-.08.207-.098.469-.156.262-.058.317-.065.491-.057.262.011.602.097.831.21.254.126.438.289.717.635.344.426.526.558 1.035.75.456.173.74.377 1.015.724.344.437.458 1.006.299 1.493-.093.284-.366.64-.644.837-.31.22-.557.327-.973.419-.47.104-.755.108-1.122.016-.257-.064-.418-.08-.535-.055-.115.026-.301.136-.492.291a2.347 2.347 0 0 1-.255.181c-.25.143-.711.29-1.031.33zm-2.658-2.674a1.5 1.5 0 0 1-.756-.238 1.956 1.956 0 0 1-.53-.456c-.235-.284-.321-.468-.411-.874-.125-.563-.088-1.162.1-1.604a.916.916 0 0 1 .237-.348c.07-.065.094-.075.253-.11.163-.037.187-.037.319-.006.357.086.91.563 1.375 1.183.235.315.362.575.43.886.122.55-.02 1.068-.366 1.342a1.06 1.06 0 0 1-.651.225zm7.163-1.6a.963.963 0 0 1-.503-.17c-.43-.277-.67-.834-.636-1.466.01-.203.028-.307.105-.627.145-.607.37-1.123.6-1.37.187-.203.424-.289.645-.233.493.123 1.031.913 1.179 1.733a1.89 1.89 0 0 1-.104 1.098c-.251.644-.778 1.067-1.286 1.034zm-5.909-1.127c-.337-.025-.646-.176-.913-.448-.446-.455-.692-1.149-.616-1.742.103-.816.668-1.738 1.241-2.025.235-.117.497-.114.684.01.367.24.658.88.852 1.87.09.461.102.603.074.884-.056.556-.327 1.056-.702 1.293-.14.089-.458.17-.62.158zm3.568-.789c-.245-.005-.57-.135-.794-.318-.467-.383-.717-.891-.881-1.792-.207-1.134-.072-1.766.41-1.914.168-.052.33-.05.562.006.625.15 1.359.7 1.709 1.281.186.31.26.564.284.98.042.723-.273 1.391-.775 1.644a1.321 1.321 0 0 1-.515.113z" style="fill:#000;fill-opacity:.1;stroke-width:.018916" transform="translate(-88.01 -119.609)"/><path d="M93.415 132.66c-.464-.33-.735-.85-.688-1.318.018-.183.05-.271.165-.47.095-.163.118-.195.208-.278.183-.17.423-.308.672-.383.078-.024.264-.06.413-.08.15-.02.341-.058.426-.082.147-.043.213-.075.68-.33.178-.098.398-.17.582-.194.17-.02.42-.002.593.045.13.036.17.054.348.158.18.104.215.129.31.224.142.144.29.37.361.555.08.204.099.393.076.735-.028.422.007.593.195.969.168.336.224.6.197.942-.033.428-.265.81-.61 1.004-.203.113-.543.172-.804.14a1.839 1.839 0 0 1-.773-.272c-.321-.187-.485-.334-.646-.578-.112-.171-.194-.265-.275-.312-.079-.045-.242-.08-.432-.091a1.806 1.806 0 0 1-.24-.031 2.549 2.549 0 0 1-.758-.352zm-.11-2.909a1.16 1.16 0 0 1-.306-.531 1.51 1.51 0 0 1-.062-.536c.015-.285.062-.435.223-.713.224-.384.56-.706.897-.859a.708.708 0 0 1 .317-.073c.073 0 .092.006.201.07.112.064.125.076.184.164.158.236.223.796.162 1.392a1.7 1.7 0 0 1-.219.728c-.219.376-.57.596-.91.571a.82.82 0 0 1-.488-.213zm4.907 2.84a.745.745 0 0 1-.198-.36c-.099-.382.056-.825.406-1.166.113-.11.177-.16.388-.301.4-.27.798-.444 1.058-.465.212-.017.392.059.489.205.216.328.107 1.059-.238 1.602a1.46 1.46 0 0 1-.633.57c-.48.234-1.001.199-1.273-.086zm-2.768-3.734a1.086 1.086 0 0 1-.284-.732c-.016-.491.208-1.014.561-1.312.486-.41 1.29-.638 1.765-.5.195.055.342.194.384.362.082.329-.087.845-.495 1.509-.19.31-.257.396-.42.541-.323.287-.74.429-1.076.367a1.04 1.04 0 0 1-.435-.235zm2.44 1.42a1.106 1.106 0 0 1-.284-.596c-.066-.462.058-.882.436-1.48.476-.752.884-1.04 1.235-.873.123.059.214.144.317.298.276.412.405 1.109.3 1.622-.056.274-.147.457-.351.705-.355.433-.883.648-1.301.53a1.02 1.02 0 0 1-.352-.206z" style="fill:#000;fill-opacity:.1;stroke-width:.0146125" transform="translate(-88.01 -119.609)"/><path d="M98.25 159.05c-.552.078-1.094-.108-1.376-.47-.11-.143-.147-.226-.199-.446-.042-.18-.047-.217-.04-.336.015-.244.093-.503.22-.724.039-.069.146-.22.238-.335.093-.114.204-.27.247-.344.075-.129.1-.196.26-.691.061-.19.168-.39.283-.53.105-.128.296-.283.45-.366.116-.062.156-.076.353-.123.197-.047.239-.052.37-.049.198.006.455.067.63.15.193.092.334.213.548.47.264.318.403.416.79.556.345.125.563.275.773.535.265.326.357.753.243 1.122-.067.217-.27.488-.476.64-.232.17-.418.253-.73.327-.354.084-.57.09-.847.025-.195-.046-.316-.057-.405-.036-.086.021-.225.106-.368.226-.058.049-.144.112-.19.139-.188.11-.533.227-.775.26zm-2.037-1.987a1.139 1.139 0 0 1-.573-.172 1.474 1.474 0 0 1-.405-.337c-.18-.212-.248-.35-.32-.656-.101-.423-.08-.876.057-1.212a.693.693 0 0 1 .176-.265c.051-.05.07-.057.19-.086.121-.029.14-.03.24-.007.27.061.694.414 1.05.878.182.235.28.43.336.663.098.414-.003.806-.262 1.017a.8.8 0 0 1-.489.177zm5.389-1.289a.724.724 0 0 1-.382-.122c-.327-.204-.515-.622-.497-1.1.006-.153.018-.232.073-.474.102-.46.267-.851.437-1.04.139-.155.317-.223.485-.184.373.088.788.678.909 1.295.059.302.04.549-.066.83-.183.489-.576.814-.96.795zm-4.473-.784a1.062 1.062 0 0 1-.694-.328c-.342-.338-.535-.859-.485-1.307.07-.617.486-1.32.915-1.542a.522.522 0 0 1 .516-.001c.28.177.506.657.664 1.402.073.347.084.454.066.666-.036.42-.235.801-.515.984a1.017 1.017 0 0 1-.467.126zm2.684-.635c-.184 0-.431-.096-.602-.231-.357-.284-.552-.665-.686-1.343-.169-.853-.074-1.332.288-1.449a.756.756 0 0 1 .425-.002c.473.106 1.033.513 1.304.948.144.231.202.422.225.736.04.545-.19 1.053-.566 1.25a.996.996 0 0 1-.388.09z" style="fill:#000;fill-opacity:.1;stroke-width:.0142787" transform="translate(-88.01 -119.609)"/><path d="M110.609 167.26c-.474-.287-.776-.77-.765-1.228.005-.178.028-.266.126-.468.08-.165.1-.197.18-.284.165-.18.387-.33.623-.421.074-.029.252-.077.395-.108.143-.031.326-.081.406-.111.14-.053.2-.088.635-.37.166-.108.373-.195.55-.231.162-.033.407-.033.578 0 .128.024.168.039.349.126.182.088.217.11.316.195.15.129.31.337.392.51.091.193.124.375.127.708.005.41.05.574.26.924.189.314.263.566.262.898 0 .418-.197.806-.518 1.019-.187.124-.513.207-.768.194a1.785 1.785 0 0 1-.769-.206c-.325-.157-.495-.287-.669-.512-.12-.158-.208-.242-.29-.281-.08-.039-.24-.06-.424-.058a1.758 1.758 0 0 1-.235-.012 2.483 2.483 0 0 1-.761-.285zm-.323-2.812a1.128 1.128 0 0 1-.335-.493 1.467 1.467 0 0 1-.1-.514c-.007-.277.028-.426.164-.707.188-.39.49-.726.805-.899a.687.687 0 0 1 .302-.094c.071-.006.09 0 .2.052.113.055.127.066.19.146.17.217.276.755.26 1.336a1.658 1.658 0 0 1-.158.723c-.184.38-.508.62-.84.62a.794.794 0 0 1-.488-.17zm4.966 2.388a.724.724 0 0 1-.218-.334c-.124-.362-.007-.803.307-1.16.1-.114.16-.168.353-.32.368-.29.741-.49.991-.529.205-.032.385.028.49.163.232.302.181 1.018-.113 1.57-.144.27-.313.448-.572.599-.447.262-.955.267-1.238.011zm-2.958-3.412a1.056 1.056 0 0 1-.33-.69c-.052-.474.126-.997.446-1.312.441-.433 1.203-.713 1.674-.616a.52.52 0 0 1 .4.324c.103.312-.023.825-.369 1.498-.162.314-.22.403-.368.556-.291.302-.684.47-1.014.435a1.013 1.013 0 0 1-.44-.195zm2.469 1.194a1.077 1.077 0 0 1-.32-.556c-.097-.443-.009-.859.314-1.466.405-.765.78-1.074 1.132-.937a.75.75 0 0 1 .329.265c.298.379.475 1.044.41 1.55-.034.269-.108.453-.287.709-.312.446-.808.693-1.222.608a.994.994 0 0 1-.356-.173z" style="fill:#000;fill-opacity:.1;stroke-width:.0142009" transform="translate(-88.01 -119.609)"/></svg>