<?xml version="1.0" encoding="UTF-8" standalone="no"?>
<!-- Created with Inkscape (http://www.inkscape.org/) -->

<svg
   width="282.67618mm"
   height="260.24667mm"
   viewBox="0 0 282.67618 260.24667"
   version="1.1"
   id="svg234"
   xmlns:inkscape="http://www.inkscape.org/namespaces/inkscape"
   xmlns:sodipodi="http://sodipodi.sourceforge.net/DTD/sodipodi-0.dtd"
   xmlns="http://www.w3.org/2000/svg"
   xmlns:svg="http://www.w3.org/2000/svg">
  <sodipodi:namedview
     id="namedview236"
     pagecolor="#ffffff"
     bordercolor="#666666"
     borderopacity="1.0"
     inkscape:showpageshadow="2"
     inkscape:pageopacity="0.0"
     inkscape:pagecheckerboard="0"
     inkscape:deskcolor="#d1d1d1"
     inkscape:document-units="mm"
     showgrid="false" />
  <defs
     id="defs231" />
  <g
     inkscape:label="Camada 1"
     inkscape:groupmode="layer"
     id="layer1"
     transform="translate(152.66437,-22.152095)">
    <path
       id="rect3608"
       style="fill:#3b73ce;fill-opacity:1;stroke:none;stroke-width:15.22;stroke-dasharray:none;stroke-opacity:1"
       d="m 121.52168,248.45131 c -20.27088,10.05883 -42.268324,17.8053 -73.470454,7.42384 -15.35262,-5.10808 -25.63459,-8.26315 -34.90071,-9.01134 -9.2661197,-0.7482 -17.3006697,1.26233 -26.38857,5.71283 -10.34061,5.06397 -18.48435,13.43671 -41.40212,17.60358 -33.17516,6.03184 -55.314606,-4.54726 -69.437616,-21.41988 -14.12301,-16.87263 -19.78237,-40.64972 -17.49041,-60.21131 3.18872,-27.21512 27.58116,-50.06817 36.70319,-57.66987 9.701176,-8.08431 19.925516,-18.43382 25.099756,-38.937155 3.46264,-13.721081 3.22566,-29.054397 5.15007,-41.623298 0.73528,-4.802312 1.8264,-11.165404 3.03547,-16.658414 0.11067,-0.50278 0.68777,-2.826184 0.68777,-2.826184 H 121.52168 m 8.49015,225.313431 -1.25267,-233.564145 -208.144214,-0.4313 -2.63841,11.274145 c -1.28946,5.858388 -2.29259,10.327323 -3.05258,15.291015 -2.12231,13.861467 -2.00156,28.948899 -4.95112,40.636794 -4.60871,18.262431 -12.383916,25.703321 -21.613146,33.394341 -9.80838,8.17365 -36.63039,32.0611 -40.43939,64.57022 -2.63343,22.47588 3.56558,48.73598 19.88664,68.23459 16.32107,19.49861 43.211016,31.62721 79.447346,25.03878 25.01568,-4.5483 36.34631,-14.68191 44.1621603,-18.50946 8.12588997,-3.97939 13.44931,-5.27019 20.8824397,-4.67 7.43315,0.6002 17.19165,3.44172 32.41249,8.50594 31.8109,10.58402 56.324264,5.83535 76.810304,-3.58617"
       sodipodi:nodetypes="cssssssssssccccccsssssssssc" />
  </g>
</svg>
