<?xml version="1.0" encoding="UTF-8" standalone="no"?>
<!-- Created with Inkscape (http://www.inkscape.org/) -->

<svg
   width="274.18604mm"
   height="251.56464mm"
   viewBox="0 0 274.18604 251.56464"
   version="1.1"
   id="svg4639"
   xmlns:inkscape="http://www.inkscape.org/namespaces/inkscape"
   xmlns:sodipodi="http://sodipodi.sourceforge.net/DTD/sodipodi-0.dtd"
   xmlns="http://www.w3.org/2000/svg"
   xmlns:svg="http://www.w3.org/2000/svg">
  <sodipodi:namedview
     id="namedview4641"
     pagecolor="#ffffff"
     bordercolor="#666666"
     borderopacity="1.0"
     inkscape:showpageshadow="2"
     inkscape:pageopacity="0.0"
     inkscape:pagecheckerboard="0"
     inkscape:deskcolor="#d1d1d1"
     inkscape:document-units="mm"
     showgrid="false"
     inkscape:zoom="0.2102413"
     inkscape:cx="770.54317"
     inkscape:cy="470.88749"
     inkscape:window-width="1423"
     inkscape:window-height="456"
     inkscape:window-x="0"
     inkscape:window-y="25"
     inkscape:window-maximized="0"
     inkscape:current-layer="layer1" />
  <defs
     id="defs4636" />
  <g
     inkscape:label="Camada 1"
     inkscape:groupmode="layer"
     id="layer1"
     transform="translate(99.918659,-23.976153)">
    <path
       id="rect3608"
       style="fill:#3b73ce;fill-opacity:1;stroke:none;stroke-width:15.22;stroke-dasharray:none;stroke-opacity:1"
       d="m -29.04061,23.976153 c -0.0422,0.188679 -0.0879,0.36072 -0.12971,0.550871 -1.28946,5.858388 -2.40002,12.368583 -3.16001,17.332275 -2.12231,13.861467 -2.00156,28.948899 -4.95112,40.636794 -4.60871,18.262437 -12.38392,25.703317 -21.61315,33.394347 -9.80838,8.17364 -36.63039,32.06109 -40.43939,64.57021 -2.63342,22.47588 3.56558,48.73598 19.88664,68.23459 16.32107,19.49861 43.21102,31.62721 79.44735,25.03878 25.01568,-4.5483 36.34631,-14.68191 44.16216,-18.50946 8.12589,-3.97939 13.44931,-5.27019 20.88244,-4.67 7.43315,0.6002 17.19165,3.44172 32.41249,8.50594 31.8109,10.58402 56.32426,3.61309 76.8103,-5.80843 v -11.65872 c -20.27088,10.05883 -42.26832,17.8053 -73.47045,7.42384 -15.35262,-5.10808 -25.63459,-8.26315 -34.90071,-9.01134 -9.26612,-0.7482 -17.30067,1.26233 -26.38857,5.71283 -10.34061,5.06397 -18.48435,13.43671 -41.40212,17.60358 -33.17516,6.03184 -55.31461,-4.54726 -69.43762,-21.41988 -14.12302,-16.87263 -19.78238,-40.64972 -17.49041,-60.21131 3.18872,-27.21512 27.58117,-50.06817 36.70319,-57.66987 9.70118,-8.0843 19.92552,-18.43381 25.09976,-38.937151 3.46264,-13.721081 3.22566,-29.054397 5.15007,-41.623298 0.73528,-4.802312 1.82642,-11.165401 3.03547,-16.658414 0.21832,-0.991867 0.44326,-1.907598 0.66715,-2.826184 z" />
  </g>
</svg>
