<svg xmlns="http://www.w3.org/2000/svg" xml:space="preserve" viewBox="0 0 61.282 68.729"><path d="M41.324 107.538c1.483-.19 3.605-.596 4.714-.9 1.11-.305 2.12-.49 2.246-.413.97.6.084-2.995-.936-3.797-.367-.289-1.17-.6-1.784-.693-2.3-.347-2.609-.46-2.82-1.025-.117-.314-.103-.868.033-1.232.343-.925 2.608-3.175 3.195-3.175.58 0 1.772-.59 3.286-1.624.608-.417 1.187-.757 1.287-.757.1 0 .095 2.249-.011 4.997-.164 4.255-.135 5.032.196 5.226.213.125.593.665.844 1.2.582 1.243 1.757 1.807 3.761 1.805 2.862-.003 4.805-.967 4.915-2.44.049-.645.2-.75 1.46-1.012.98-.203 1.529-.48 1.813-.915.592-.903.133-1.563-1.75-2.513-2.353-1.188-2.493-1.516-2.599-6.1-.081-3.522-.036-4 .492-5.228.333-.775.965-1.643 1.481-2.037 1.118-.853 1.839-2.238 2.491-4.79.278-1.085.687-2.155.91-2.378.222-.223.415-.605.427-.849.012-.244.08-1.04.149-1.767.132-1.385-.348-3.553-1.261-5.689-.28-.654-.73-1.964-1-2.91a62.32 62.32 0 0 0-1.237-3.737l-.748-2.018.664-1.29c.365-.709.94-1.427 1.278-1.595.338-.169 1.997-1.795 3.688-3.614 1.691-1.82 3.983-4.15 5.094-5.18 2.228-2.068 2.876-3.14 2.876-4.762 0-1.62-1.013-5.114-1.637-5.651-.716-.616-1.61-.586-2.205.072-.67.74-3.114 1.407-4.562 1.244-.65-.074-1.496-.386-1.88-.695-2.808-2.26-4.241-2.553-8.037-1.647-5.238 1.25-7.731 3.71-8.317 8.206-.223 1.716-.377 1.935-2.741 3.89-1.16.96-2.051 1.836-1.981 1.95.07.112-.225.852-.654 1.644-1.201 2.219-1.665 4.416-1.539 7.297.107 2.436.122 2.483 1.022 3.262.502.435 1.597.995 2.434 1.244.836.25 1.521.537 1.521.639.001.434-2.677 3.349-4.053 4.409-.823.635-1.441 1.244-1.373 1.354.206.334-2.634 2.862-8.067 7.183-6.736 5.358-9.27 7.867-8.905 8.818.083.215.05.453-.072.529-.122.075-.491.704-.82 1.397-.75 1.58-1.025 5.646-.522 7.741.387 1.614.155 1.937-1.126 1.57-2.042-.586-2.966-2.064-2.792-4.465.132-1.836.865-2.97 2.337-3.62.579-.255 1.052-.593 1.052-.751 0-.158-.35-.671-.779-1.14-.635-.695-.98-.853-1.862-.853-2.895 0-5.296 2.884-5.296 6.361 0 .765-.129 1.31-.324 1.376-.562.187 1.27 3.496 2.567 4.638 1.807 1.591 3.86 2.001 6.716 1.342l1.326-.306 1.473 1.346c3.101 2.834 8.48 3.788 15.942 2.828z" style="fill:#f9f9f9;stroke-width:.264583" transform="translate(-13.196 -39.171)"/></svg>