<svg xmlns="http://www.w3.org/2000/svg" viewBox="0 0 146.07 57.785"><path d="M143.628 166.349c-1.688-.56-2.64-1.14-3.52-2.142-2.406-2.74-1.448-6.685 2.017-8.31 1.371-.642 1.781-.703 4.678-.694 2.647.008 3.417.107 4.63.595.8.322 1.5.586 1.556.586.056 0 .035-.494-.046-1.099-.221-1.648-1.07-2.35-3.059-2.531-1.093-.1-1.626-.262-1.626-.496 0-.456.78-.562 6.615-.896 2.692-.154 5.4-.344 6.019-.423l1.124-.144.002 5.771c.001 3.174.12 6.2.266 6.724.37 1.328 1.088 1.88 2.64 2.03 1.074.103 1.326.221 1.326.623 0 .47-.311.495-5.966.495h-5.965l-.599-.646-.599-.646-1.4.694c-1.197.592-1.814.705-4.218.777-1.844.054-3.182-.038-3.875-.268zm8.76-1.89c.61-.4.633-.528.633-3.666v-3.253l-.935-.446c-1.333-.635-2.407-.576-2.889.159-.954 1.456-.71 6.958.336 7.6.566.347 2.033.145 2.854-.393zm-46.463 1.61c0-.44.568-.69 1.57-.69 1.053 0 2.447-1.028 3.053-2.252.68-1.374.725-5.568.075-7.058-.514-1.181-2.069-2.066-3.63-2.066-.773 0-1.068-.11-1.068-.397 0-.348 1.76-.397 14.258-.397h14.26l.143.595c.08.328.222 1.518.316 2.646.157 1.86.13 2.05-.302 2.05-.261 0-.897-.406-1.412-.903-1.938-1.87-6.755-3.588-10.065-3.592l-1.456-.002V159.334l.71-.142c.392-.078 1.87-.683 3.284-1.345 1.415-.661 2.644-1.132 2.73-1.046.203.204.203 5.841 0 6.045-.086.085-1.396-.422-2.91-1.129-1.516-.706-2.964-1.358-3.218-1.448-.422-.15-.463.082-.463 2.615v2.778l1.389-.16c5.262-.611 9.943-2.204 11.555-3.933 1.201-1.287 1.442-.969 1.256 1.658-.092 1.29-.241 2.54-.333 2.778-.15.394-1.51.433-14.954.433-12.464 0-14.788-.058-14.788-.369zm66.278-18.545c-.146-.05-.703-.166-1.238-.255-1.4-.233-2.599-1.438-2.599-2.61 0-2.424 4.503-3.65 7.602-2.07 2.215 1.13 1.965 3.575-.458 4.48-.782.292-2.93.588-3.307.455zm-66.278-.763c0-.238.478-.426 1.387-.547 1.713-.227 2.95-1.12 3.407-2.461.511-1.498.445-5.825-.105-6.859-.672-1.262-1.643-1.886-3.248-2.087-1.014-.126-1.441-.296-1.441-.571 0-.341 1.548-.38 12.025-.3 4.95.173 14.11-.588 18.112 2.511 1.366 1.17 1.88 2.264 1.871 3.987-.012 2.694-1.453 4.386-4.693 5.513-2.793.97-5.692 1.172-16.93 1.174-8.622.002-10.385-.059-10.385-.36zm18.172-1.21c1.688-.766 2.067-1.692 2.068-5.042 0-4.035-.597-5.021-3.305-5.454l-1.04-.167-.076 5.59-.077 5.588.662-.006c.364-.003 1.16-.232 1.768-.509zm16.753 1.204c0-.436.566-.69 1.543-.69 1.05-.003 2.407-.948 2.838-1.981.446-1.068.498-3.161.106-4.287-.356-1.021-1.96-1.934-3.399-1.934-.785 0-1.088-.11-1.088-.392 0-.527.434-.594 5.953-.92 2.62-.154 5.447-.35 6.284-.436l1.521-.156v1.61l1.39-.633c3.789-1.726 8.557-1.248 9.467.95.416 1.002.07 1.822-1.154 2.73-.638.473-1.122.554-3.307.554-2.027 0-2.705-.098-3.26-.475-1.486-1.01-.874-2.517 1.313-3.23l1.24-.404-1.553.142c-.853.079-2.133.393-2.844.699l-1.292.555v2.375c0 2.9.43 3.978 1.878 4.717.556.284 1.284.518 1.617.52 1.02.006 1.797.304 1.797.689 0 .304-1.592.366-9.525.366-7.965 0-9.525-.06-9.525-.369z" style="fill:#3b55b7;fill-opacity:1;stroke-width:.264583" transform="translate(-31.419 -119.607)"/><g aria-label="M. VETERINÁRIO" style="font-weight:700;font-size:7.53337px;line-height:1.25;font-family:Arial;-inkscape-font-specification:&quot;Arial, Bold&quot;;fill:#3b55b7;stroke-width:.188335"><path d="M73.903 57.037v-5.392h1.63l.978 3.678.967-3.678h1.634v5.392H78.1v-4.245l-1.07 4.245H75.98l-1.067-4.245v4.245zM80.186 57.037v-1.033h1.033v1.033zM85.755 57.037l-1.928-5.392h1.181l1.365 3.99 1.32-3.99h1.155l-1.93 5.392zM89.404 57.037v-5.392h3.998v.912h-2.91v1.195H93.2v.909h-2.708v1.468h3.013v.908zM95.642 57.037v-4.48h-1.6v-.912h4.285v.912h-1.596v4.48zM99.03 57.037v-5.392h3.999v.912h-2.91v1.195h2.707v.909h-2.707v1.468h3.012v.908zM104.058 57.037v-5.392h2.292q.865 0 1.254.147.394.143.63.515.235.371.235.85 0 .607-.357 1.004-.357.393-1.067.496.353.206.582.453.231.246.621.875l.659 1.052h-1.303l-.787-1.173q-.42-.63-.574-.791-.154-.166-.327-.224-.173-.063-.548-.063h-.22v2.251zm1.09-3.112h.805q.783 0 .978-.066.195-.066.306-.228.11-.162.11-.405 0-.272-.147-.437-.144-.17-.408-.214-.133-.018-.795-.018h-.85zM109.462 57.037v-5.392h1.089v5.392zM111.6 57.037v-5.392h1.059l2.207 3.6v-3.6h1.011v5.392h-1.092l-2.174-3.516v3.516zM121.891 57.037h-1.184l-.47-1.225h-2.156l-.446 1.225h-1.155l2.1-5.392h1.152zm-2.004-2.133-.743-2.001-.729 2zm-1.369-3.568.508-1.1h1.159l-1.012 1.1zM122.473 57.037v-5.392h2.291q.865 0 1.255.147.393.143.629.515.235.371.235.85 0 .607-.357 1.004-.357.393-1.067.496.354.206.582.453.231.246.621.875l.659 1.052h-1.302l-.788-1.173q-.419-.63-.573-.791-.155-.166-.328-.224-.173-.063-.548-.063h-.22v2.251zm1.088-3.112h.806q.783 0 .978-.066.195-.066.306-.228.11-.162.11-.405 0-.272-.147-.437-.144-.17-.408-.214-.133-.018-.795-.018h-.85zM127.876 57.037v-5.392h1.089v5.392zM129.782 54.374q0-.824.246-1.383.184-.412.5-.74.32-.327.7-.485.503-.213 1.162-.213 1.191 0 1.905.74.717.739.717 2.055 0 1.306-.71 2.046-.71.735-1.898.735-1.203 0-1.913-.732-.71-.735-.71-2.023zm1.121-.037q0 .916.423 1.39.423.472 1.075.472.65 0 1.066-.468.42-.47.42-1.408 0-.927-.409-1.383-.404-.457-1.077-.457-.674 0-1.086.464-.412.46-.412 1.39z"/></g><path d="m62.25 133.174-18.117 44.044v-13.047H31.42v-18.116h12.714v-12.88z" style="fill:#3b73ce;fill-opacity:1;stroke:none;stroke-width:.264583px;stroke-linecap:butt;stroke-linejoin:miter;stroke-opacity:1" transform="translate(-31.419 -119.607)"/><path d="M81.727 119.607c-.132.003-.282.248-.362.589-.193.822-.88 2.337-1.624 3.581-.913 1.525-1.523 2.913-1.984 4.514-.39 1.349-.43 1.417-1.125 1.848-1.522.944-4.053 3.2-4.913 5.134-.639 1.435-1.439 3.961-2.156 6.808-.359 1.426-.67 2.79-.98 4.14H62.25v-13.047l-18.117 44.044H62.25v-.216a5.815 5.815 0 0 1-.314-.616c-3.364-16.604 4.877-20.835 5.619-26.268.193-1.518.645-3.062 1.272-4.351.696-1.43 1.67-2.594 2.523-3.012.115-.056.236-.149.27-.207.034-.058.24-.343.456-.632.784-1.047 1.11-1.948 1.485-1.752.205.109.66 1 1.042 1.621l.08.131.025-.187c.465-1.06.655-1.44 1.066-1.65.526-.269.442-.23.702.583.179.56.343 1.263.371 2.085l.023.673.29.065c.825.183 1.518.53 2.06 1.032.28.26.441.51.497.775.1.473.327.76.854 1.082 1.357.83 1.605 1.094 1.646 1.753a6.46 6.46 0 0 1-.045.876c-.189 1.674-.453 2.047-1.518 2.147-.764.072-1.187.18-1.665.427-.724.372-1.029.957-1.037 1.993-.002.272.018.632.044.8.097.62.44 1.762.934 3.121.217.595.54 1.675.626 2.094.392 1.905 1.93 15.449.888 17.512-.065.1-.139.198-.219.296 3.135-2.332 6.067-7.86 6.24-11.779.139-3.156.06-6.057-.352-13-.206-3.466-.362-6.581-.347-6.923.053-1.19.74-2.701 1.28-2.816.167-.036.721.19 1.232.5.84.51.998.551 1.631.423.386-.078.806-.142.932-.144a55.98 55.98 0 0 0 1.444-.08 99.3 99.3 0 0 1 1.443-.085c2.069-.068 2.24-.1 2.557-.481.147-.177.403-.4.57-.494.458-.262 1.21-1.704 1.644-3.156.214-.715.56-1.742.771-2.28.21-.539.357-1.093.327-1.231-.086-.393-1.372-.982-3.78-1.732-3.312-1.031-4.537-1.973-5.377-4.136-.473-1.218-.627-1.375-1.51-1.54-.412-.077-.894-.171-1.072-.21a17.988 17.988 0 0 0-1.19-.166c-1.056-.12-1.029-.003-.799-3.35.173-2.518.033-3.776-.517-4.65-.49-.778-.706-.488-1.31 1.757-.396 1.474-.612 2.04-.718 1.887-.083-.12-.325-.907-.538-1.749-.43-1.709-.724-2.359-1.059-2.35z" style="fill:#3b55b7;fill-opacity:1;stroke:none;stroke-width:.264583px;stroke-linecap:butt;stroke-linejoin:miter;stroke-opacity:1" transform="translate(-31.419 -119.607)"/></svg>