<svg xmlns="http://www.w3.org/2000/svg" viewBox="0 0 44.463 41.746"><path d="M91.221 124.617c-3.119-.24-5.874-1.917-6.98-4.25-.433-.91-.537-1.415-.557-2.686-.016-1.033.005-1.245.188-1.89.377-1.325 1.117-2.65 2.075-3.711.3-.332 1.072-1.03 1.717-1.55.644-.52 1.44-1.236 1.769-1.593.57-.618.789-.955 2.262-3.482.564-.967 1.39-1.935 2.192-2.564.734-.577 1.972-1.2 2.917-1.47.707-.2.947-.23 2.083-.25 1.14-.019 1.375.001 2.09.18 1.082.27 2.42.916 3.278 1.582.95.737 1.577 1.572 2.443 3.247 1.066 2.062 1.712 2.768 3.665 4.002 1.747 1.104 2.76 2.191 3.603 3.87 1.06 2.109 1.05 4.568-.024 6.458-.63 1.105-2.066 2.35-3.386 2.934-1.474.652-2.596.885-4.404.916-2.042.035-3.231-.19-4.68-.886-1.01-.485-1.665-.69-2.176-.682-.502.01-1.368.308-2.293.793-.382.2-.928.44-1.214.534-1.164.38-3.202.603-4.568.498zm-8.78-13.372c-1.07-.25-1.987-.76-2.943-1.635a8.294 8.294 0 0 1-1.813-2.343c-.736-1.38-.94-2.22-.97-3.986-.041-2.443.624-4.906 1.779-6.585.397-.577.742-.911 1.284-1.242.345-.211.451-.234 1.145-.246.706-.012.806.007 1.329.251 1.412.662 3.31 3.113 4.712 6.087.712 1.509 1.018 2.699 1.039 4.047.038 2.39-.99 4.423-2.666 5.271-.877.443-1.998.59-2.896.381zm31.142-.572c-.794-.217-1.339-.533-1.948-1.13-1.548-1.516-2.08-4.037-1.4-6.64.218-.833.38-1.251.97-2.516 1.119-2.398 2.496-4.352 3.657-5.186.951-.684 2.012-.839 2.884-.422 1.946.93 3.509 4.675 3.427 8.208-.04 1.73-.445 3.06-1.363 4.479-1.593 2.462-4.144 3.776-6.227 3.207zm-23.611-9.705c-1.38-.387-2.536-1.279-3.416-2.638-1.468-2.268-1.9-5.363-1.084-7.764 1.124-3.306 4.259-6.66 6.883-7.366 1.075-.289 2.163-.051 2.837.62 1.318 1.311 1.986 4.22 1.952 8.5-.016 1.997-.087 2.595-.443 3.739-.705 2.266-2.258 4.114-4.016 4.78-.66.25-2.047.316-2.713.13zm15.503-.247c-1.011-.227-2.251-1.045-3.027-1.998-1.619-1.987-2.227-4.314-2.145-8.199.104-4.89 1.204-7.402 3.332-7.61.741-.072 1.413.073 2.334.503 2.47 1.154 5.052 4.065 6.014 6.778.512 1.446.603 2.565.351 4.313-.439 3.043-2.317 5.555-4.62 6.18-.586.16-1.608.174-2.24.033z" style="fill:#fff;fill-opacity:1;stroke-width:.0802753" transform="translate(-76.713 -82.897)"/></svg>