<svg xmlns="http://www.w3.org/2000/svg" viewBox="0 0 31.315 31.521"><path d="M147.768 185.083c-.654-.166-1.984-.654-2.955-1.084l-1.766-.78-2.45.575c-1.348.317-2.502.525-2.565.463-.063-.063.15-1.138.472-2.39l.586-2.275-1.117-2.579c-1.007-2.325-1.118-2.885-1.127-5.691-.008-2.469.145-3.521.741-5.091 2.004-5.278 6.716-8.798 12.353-9.23 8.589-.656 15.859 6.693 15.137 15.303-.445 5.303-4.1 10.205-9.042 12.127-2.062.801-6.348 1.14-8.267.652z" style="fill:#189d0e;fill-opacity:1;stroke-width:3.27608" transform="translate(-135.36 -155.392)"/><path d="M135.577 185.9c.15-.558.575-2.129.948-3.491.866-3.173.891-3.28.84-3.545-.024-.121-.195-.538-.38-.928a16.96 16.96 0 0 1-1.392-4.44c-.193-1.128-.21-3.594-.034-4.73.417-2.669 1.387-4.987 3.002-7.175.565-.765 2.138-2.356 2.884-2.917a16.139 16.139 0 0 1 9.217-3.272c3.108-.115 6.315.788 8.937 2.517 1.652 1.09 3.236 2.634 4.338 4.232 2.872 4.16 3.532 9.578 1.753 14.37a15.497 15.497 0 0 1-7.788 8.591 15.172 15.172 0 0 1-4.794 1.454c-1.09.15-3.095.15-4.178 0-1.443-.2-3.124-.696-4.497-1.326-.54-.248-.774-.322-1.018-.322-.283 0-1.497.301-6.983 1.732-.553.145-1.033.263-1.066.263-.033 0 .062-.456.211-1.014zm16.845-1.85c4.375-.464 8.155-3.044 10.232-6.982.445-.844.758-1.65 1.041-2.683.547-1.997.561-4.436.037-6.504-1.88-7.411-9.533-11.634-16.768-9.253-4.49 1.477-7.735 5.147-8.765 9.913-.172.794-.181.92-.181 2.478 0 1.705.024 1.937.326 3.153.264 1.064.485 1.632 1.133 2.92.709 1.407.743 1.755.308 3.113-.245.767-.837 3.058-.8 3.096.026.026 1.45-.333 3.666-.923 1.192-.318 1.203-.316 2.35.26 2.517 1.267 4.764 1.694 7.421 1.412zm2.069-5.57c-3.12-.412-6.715-2.791-9.151-6.055-1.615-2.163-2.129-3.264-2.188-4.688-.038-.902.066-1.415.436-2.156.7-1.403 1.452-1.896 2.613-1.715.304.047.547.122.614.189.222.224 1.53 3.395 1.53 3.71 0 .28-.268.753-.781 1.376-.557.676-.568.793-.139 1.486 1.188 1.919 2.934 3.394 5.063 4.278.293.122.597.13.79.02.076-.042.427-.443.78-.889.695-.877.853-1.022 1.114-1.022.22 0 3.077 1.357 3.55 1.687.167.117.177.15.177.627 0 2.09-1.94 3.478-4.408 3.152z" style="fill:#fff;fill-opacity:1;stroke-width:.0643482" transform="translate(-135.36 -155.392)"/></svg>